# xmcd CD database file
# Copyright (C) 1993-1996 Ti Kan
#
# Track frame offsets:
# 150
# 21505
# 36790
# 53430
# 70010
# 89160
# 117892
# 140440
# 158795
# 179387
# 190372
# 211090
#
# Disc length: 3140 seconds
#
# Revision: 1
# Processed by: cddbd v1.4b41PL1 Copyright (c) Steve Scherf et al.
# Submitted via: CDValet v3.31 - Copyright (c) 1997 Greg Leichner
#
DISCID=a50c420c
DTITLE=Various Artist - Smooth Soul - a classic R&B collection
DYEAR=1900
DGENRE=
TTITLE0=You Are My Lady
TTITLE1=Lovin' You
TTITLE2=That's The Way I Feel About Cha
TTITLE3=She's Gone
TTITLE4=Float On
TTITLE5=For The Good Times
TTITLE6=Reasons
TTITLE7=Southern Girl
TTITLE8=You Are My Starship
TTITLE9=Inseparable
TTITLE10=Feel The Fire
TTITLE11=Close The Door
EXTD=
EXTT0=
EXTT1=
EXTT2=
EXTT3=
EXTT4=
EXTT5=
EXTT6=
EXTT7=
EXTT8=
EXTT9=
EXTT10=
EXTT11=
PLAYORDER=
